<svg width="141" height="227" viewBox="0 0 141 227" fill="none" xmlns="http://www.w3.org/2000/svg">
<g id="Group 17">
<circle id="Ellipse 13" cx="2.63867" cy="223.885" r="2.5" transform="rotate(-90 2.63867 223.885)" fill="white" fill-opacity="0.43"/>
<circle id="Ellipse 93" cx="2.63867" cy="107.551" r="2.5" transform="rotate(-90 2.63867 107.551)" fill="white" fill-opacity="0.43"/>
<circle id="Ellipse 21" cx="17.6387" cy="223.885" r="2.5" transform="rotate(-90 17.6387 223.885)" fill="white" fill-opacity="0.43"/>
<circle id="Ellipse 94" cx="17.6387" cy="107.551" r="2.5" transform="rotate(-90 17.6387 107.551)" fill="white" fill-opacity="0.43"/>
<circle id="Ellipse 29" cx="32.6387" cy="223.885" r="2.5" transform="rotate(-90 32.6387 223.885)" fill="white" fill-opacity="0.43"/>
<circle id="Ellipse 95" cx="32.6387" cy="107.551" r="2.5" transform="rotate(-90 32.6387 107.551)" fill="white" fill-opacity="0.43"/>
<circle id="Ellipse 37" cx="47.6387" cy="223.885" r="2.5" transform="rotate(-90 47.6387 223.885)" fill="white" fill-opacity="0.43"/>
<circle id="Ellipse 96" cx="47.6387" cy="107.551" r="2.5" transform="rotate(-90 47.6387 107.551)" fill="white" fill-opacity="0.43"/>
<circle id="Ellipse 45" cx="62.6387" cy="223.885" r="2.5" transform="rotate(-90 62.6387 223.885)" fill="white" fill-opacity="0.43"/>
<circle id="Ellipse 97" cx="62.6387" cy="107.551" r="2.5" transform="rotate(-90 62.6387 107.551)" fill="white" fill-opacity="0.43"/>
<circle id="Ellipse 53" cx="77.6387" cy="223.885" r="2.5" transform="rotate(-90 77.6387 223.885)" fill="white" fill-opacity="0.43"/>
<circle id="Ellipse 98" cx="77.6387" cy="107.551" r="2.5" transform="rotate(-90 77.6387 107.551)" fill="white" fill-opacity="0.43"/>
<circle id="Ellipse 61" cx="92.6387" cy="223.885" r="2.5" transform="rotate(-90 92.6387 223.885)" fill="white" fill-opacity="0.43"/>
<circle id="Ellipse 99" cx="92.6387" cy="107.551" r="2.5" transform="rotate(-90 92.6387 107.551)" fill="white" fill-opacity="0.43"/>
<circle id="Ellipse 69" cx="107.639" cy="223.885" r="2.5" transform="rotate(-90 107.639 223.885)" fill="white" fill-opacity="0.43"/>
<circle id="Ellipse 100" cx="107.639" cy="107.551" r="2.5" transform="rotate(-90 107.639 107.551)" fill="white" fill-opacity="0.43"/>
<circle id="Ellipse 77" cx="122.639" cy="223.885" r="2.5" transform="rotate(-90 122.639 223.885)" fill="white" fill-opacity="0.43"/>
<circle id="Ellipse 101" cx="122.639" cy="107.551" r="2.5" transform="rotate(-90 122.639 107.551)" fill="white" fill-opacity="0.43"/>
<circle id="Ellipse 85" cx="137.639" cy="223.885" r="2.5" transform="rotate(-90 137.639 223.885)" fill="white" fill-opacity="0.43"/>
<circle id="Ellipse 102" cx="137.639" cy="107.551" r="2.5" transform="rotate(-90 137.639 107.551)" fill="white" fill-opacity="0.43"/>
<circle id="Ellipse 15" cx="2.63867" cy="193.885" r="2.5" transform="rotate(-90 2.63867 193.885)" fill="white" fill-opacity="0.43"/>
<circle id="Ellipse 103" cx="2.63867" cy="77.5513" r="2.5" transform="rotate(-90 2.63867 77.5513)" fill="white" fill-opacity="0.43"/>
<circle id="Ellipse 22" cx="17.6387" cy="193.885" r="2.5" transform="rotate(-90 17.6387 193.885)" fill="white" fill-opacity="0.43"/>
<circle id="Ellipse 104" cx="17.6387" cy="77.5513" r="2.5" transform="rotate(-90 17.6387 77.5513)" fill="white" fill-opacity="0.43"/>
<circle id="Ellipse 30" cx="32.6387" cy="193.885" r="2.5" transform="rotate(-90 32.6387 193.885)" fill="white" fill-opacity="0.43"/>
<circle id="Ellipse 105" cx="32.6387" cy="77.5513" r="2.5" transform="rotate(-90 32.6387 77.5513)" fill="white" fill-opacity="0.43"/>
<circle id="Ellipse 38" cx="47.6387" cy="193.885" r="2.5" transform="rotate(-90 47.6387 193.885)" fill="white" fill-opacity="0.43"/>
<circle id="Ellipse 106" cx="47.6387" cy="77.5513" r="2.5" transform="rotate(-90 47.6387 77.5513)" fill="white" fill-opacity="0.43"/>
<circle id="Ellipse 46" cx="62.6387" cy="193.885" r="2.5" transform="rotate(-90 62.6387 193.885)" fill="white" fill-opacity="0.43"/>
<circle id="Ellipse 107" cx="62.6387" cy="77.5513" r="2.5" transform="rotate(-90 62.6387 77.5513)" fill="white" fill-opacity="0.43"/>
<circle id="Ellipse 54" cx="77.6387" cy="193.885" r="2.5" transform="rotate(-90 77.6387 193.885)" fill="white" fill-opacity="0.43"/>
<circle id="Ellipse 108" cx="77.6387" cy="77.5513" r="2.5" transform="rotate(-90 77.6387 77.5513)" fill="white" fill-opacity="0.43"/>
<circle id="Ellipse 62" cx="92.6387" cy="193.885" r="2.5" transform="rotate(-90 92.6387 193.885)" fill="white" fill-opacity="0.43"/>
<circle id="Ellipse 109" cx="92.6387" cy="77.5513" r="2.5" transform="rotate(-90 92.6387 77.5513)" fill="white" fill-opacity="0.43"/>
<circle id="Ellipse 70" cx="107.639" cy="193.885" r="2.5" transform="rotate(-90 107.639 193.885)" fill="white" fill-opacity="0.43"/>
<circle id="Ellipse 110" cx="107.639" cy="77.5513" r="2.5" transform="rotate(-90 107.639 77.5513)" fill="white" fill-opacity="0.43"/>
<circle id="Ellipse 78" cx="122.639" cy="193.885" r="2.5" transform="rotate(-90 122.639 193.885)" fill="white" fill-opacity="0.43"/>
<circle id="Ellipse 111" cx="122.639" cy="77.5513" r="2.5" transform="rotate(-90 122.639 77.5513)" fill="white" fill-opacity="0.43"/>
<circle id="Ellipse 86" cx="137.639" cy="193.885" r="2.5" transform="rotate(-90 137.639 193.885)" fill="white" fill-opacity="0.43"/>
<circle id="Ellipse 112" cx="137.639" cy="77.5513" r="2.5" transform="rotate(-90 137.639 77.5513)" fill="white" fill-opacity="0.43"/>
<circle id="Ellipse 17" cx="2.63867" cy="163.885" r="2.5" transform="rotate(-90 2.63867 163.885)" fill="white" fill-opacity="0.43"/>
<circle id="Ellipse 113" cx="2.63867" cy="47.5513" r="2.5" transform="rotate(-90 2.63867 47.5513)" fill="white" fill-opacity="0.43"/>
<circle id="Ellipse 23" cx="17.6387" cy="163.885" r="2.5" transform="rotate(-90 17.6387 163.885)" fill="white" fill-opacity="0.43"/>
<circle id="Ellipse 114" cx="17.6387" cy="47.5513" r="2.5" transform="rotate(-90 17.6387 47.5513)" fill="white" fill-opacity="0.43"/>
<circle id="Ellipse 31" cx="32.6387" cy="163.885" r="2.5" transform="rotate(-90 32.6387 163.885)" fill="white" fill-opacity="0.43"/>
<circle id="Ellipse 115" cx="32.6387" cy="47.5513" r="2.5" transform="rotate(-90 32.6387 47.5513)" fill="white" fill-opacity="0.43"/>
<circle id="Ellipse 39" cx="47.6387" cy="163.885" r="2.5" transform="rotate(-90 47.6387 163.885)" fill="white" fill-opacity="0.43"/>
<circle id="Ellipse 116" cx="47.6387" cy="47.5513" r="2.5" transform="rotate(-90 47.6387 47.5513)" fill="white" fill-opacity="0.43"/>
<circle id="Ellipse 47" cx="62.6387" cy="163.885" r="2.5" transform="rotate(-90 62.6387 163.885)" fill="white" fill-opacity="0.43"/>
<circle id="Ellipse 117" cx="62.6387" cy="47.5513" r="2.5" transform="rotate(-90 62.6387 47.5513)" fill="white" fill-opacity="0.43"/>
<circle id="Ellipse 55" cx="77.6387" cy="163.885" r="2.5" transform="rotate(-90 77.6387 163.885)" fill="white" fill-opacity="0.43"/>
<circle id="Ellipse 118" cx="77.6387" cy="47.5513" r="2.5" transform="rotate(-90 77.6387 47.5513)" fill="white" fill-opacity="0.43"/>
<circle id="Ellipse 63" cx="92.6387" cy="163.885" r="2.5" transform="rotate(-90 92.6387 163.885)" fill="white" fill-opacity="0.43"/>
<circle id="Ellipse 119" cx="92.6387" cy="47.5513" r="2.5" transform="rotate(-90 92.6387 47.5513)" fill="white" fill-opacity="0.43"/>
<circle id="Ellipse 71" cx="107.639" cy="163.885" r="2.5" transform="rotate(-90 107.639 163.885)" fill="white" fill-opacity="0.43"/>
<circle id="Ellipse 120" cx="107.639" cy="47.5513" r="2.5" transform="rotate(-90 107.639 47.5513)" fill="white" fill-opacity="0.43"/>
<circle id="Ellipse 79" cx="122.639" cy="163.885" r="2.5" transform="rotate(-90 122.639 163.885)" fill="white" fill-opacity="0.43"/>
<circle id="Ellipse 121" cx="122.639" cy="47.5513" r="2.5" transform="rotate(-90 122.639 47.5513)" fill="white" fill-opacity="0.43"/>
<circle id="Ellipse 87" cx="137.639" cy="163.885" r="2.5" transform="rotate(-90 137.639 163.885)" fill="white" fill-opacity="0.43"/>
<circle id="Ellipse 122" cx="137.639" cy="47.5513" r="2.5" transform="rotate(-90 137.639 47.5513)" fill="white" fill-opacity="0.43"/>
<circle id="Ellipse 19" cx="2.63867" cy="133.885" r="2.5" transform="rotate(-90 2.63867 133.885)" fill="white" fill-opacity="0.43"/>
<circle id="Ellipse 123" cx="2.63867" cy="17.5513" r="2.5" transform="rotate(-90 2.63867 17.5513)" fill="white" fill-opacity="0.43"/>
<circle id="Ellipse 24" cx="17.6387" cy="133.885" r="2.5" transform="rotate(-90 17.6387 133.885)" fill="white" fill-opacity="0.43"/>
<circle id="Ellipse 124" cx="17.6387" cy="17.5513" r="2.5" transform="rotate(-90 17.6387 17.5513)" fill="white" fill-opacity="0.43"/>
<circle id="Ellipse 32" cx="32.6387" cy="133.885" r="2.5" transform="rotate(-90 32.6387 133.885)" fill="white" fill-opacity="0.43"/>
<circle id="Ellipse 125" cx="32.6387" cy="17.5513" r="2.5" transform="rotate(-90 32.6387 17.5513)" fill="white" fill-opacity="0.43"/>
<circle id="Ellipse 40" cx="47.6387" cy="133.885" r="2.5" transform="rotate(-90 47.6387 133.885)" fill="white" fill-opacity="0.43"/>
<circle id="Ellipse 126" cx="47.6387" cy="17.5513" r="2.5" transform="rotate(-90 47.6387 17.5513)" fill="white" fill-opacity="0.43"/>
<circle id="Ellipse 48" cx="62.6387" cy="133.885" r="2.5" transform="rotate(-90 62.6387 133.885)" fill="white" fill-opacity="0.43"/>
<circle id="Ellipse 127" cx="62.6387" cy="17.5513" r="2.5" transform="rotate(-90 62.6387 17.5513)" fill="white" fill-opacity="0.43"/>
<circle id="Ellipse 56" cx="77.6387" cy="133.885" r="2.5" transform="rotate(-90 77.6387 133.885)" fill="white" fill-opacity="0.43"/>
<circle id="Ellipse 128" cx="77.6387" cy="17.5513" r="2.5" transform="rotate(-90 77.6387 17.5513)" fill="white" fill-opacity="0.43"/>
<circle id="Ellipse 64" cx="92.6387" cy="133.885" r="2.5" transform="rotate(-90 92.6387 133.885)" fill="white" fill-opacity="0.43"/>
<circle id="Ellipse 129" cx="92.6387" cy="17.5513" r="2.5" transform="rotate(-90 92.6387 17.5513)" fill="white" fill-opacity="0.43"/>
<circle id="Ellipse 72" cx="107.639" cy="133.885" r="2.5" transform="rotate(-90 107.639 133.885)" fill="white" fill-opacity="0.43"/>
<circle id="Ellipse 130" cx="107.639" cy="17.5513" r="2.5" transform="rotate(-90 107.639 17.5513)" fill="white" fill-opacity="0.43"/>
<circle id="Ellipse 80" cx="122.639" cy="133.885" r="2.5" transform="rotate(-90 122.639 133.885)" fill="white" fill-opacity="0.43"/>
<circle id="Ellipse 131" cx="122.639" cy="17.5513" r="2.5" transform="rotate(-90 122.639 17.5513)" fill="white" fill-opacity="0.43"/>
<circle id="Ellipse 88" cx="137.639" cy="133.885" r="2.5" transform="rotate(-90 137.639 133.885)" fill="white" fill-opacity="0.43"/>
<circle id="Ellipse 132" cx="137.639" cy="17.5513" r="2.5" transform="rotate(-90 137.639 17.5513)" fill="white" fill-opacity="0.43"/>
<circle id="Ellipse 14" cx="2.63867" cy="208.885" r="2.5" transform="rotate(-90 2.63867 208.885)" fill="white" fill-opacity="0.43"/>
<circle id="Ellipse 133" cx="2.63867" cy="92.5513" r="2.5" transform="rotate(-90 2.63867 92.5513)" fill="white" fill-opacity="0.43"/>
<circle id="Ellipse 25" cx="17.6387" cy="208.885" r="2.5" transform="rotate(-90 17.6387 208.885)" fill="white" fill-opacity="0.43"/>
<circle id="Ellipse 134" cx="17.6387" cy="92.5513" r="2.5" transform="rotate(-90 17.6387 92.5513)" fill="white" fill-opacity="0.43"/>
<circle id="Ellipse 33" cx="32.6387" cy="208.885" r="2.5" transform="rotate(-90 32.6387 208.885)" fill="white" fill-opacity="0.43"/>
<circle id="Ellipse 135" cx="32.6387" cy="92.5513" r="2.5" transform="rotate(-90 32.6387 92.5513)" fill="white" fill-opacity="0.43"/>
<circle id="Ellipse 41" cx="47.6387" cy="208.885" r="2.5" transform="rotate(-90 47.6387 208.885)" fill="white" fill-opacity="0.43"/>
<circle id="Ellipse 136" cx="47.6387" cy="92.5513" r="2.5" transform="rotate(-90 47.6387 92.5513)" fill="white" fill-opacity="0.43"/>
<circle id="Ellipse 49" cx="62.6387" cy="208.885" r="2.5" transform="rotate(-90 62.6387 208.885)" fill="white" fill-opacity="0.43"/>
<circle id="Ellipse 137" cx="62.6387" cy="92.5513" r="2.5" transform="rotate(-90 62.6387 92.5513)" fill="white" fill-opacity="0.43"/>
<circle id="Ellipse 57" cx="77.6387" cy="208.885" r="2.5" transform="rotate(-90 77.6387 208.885)" fill="white" fill-opacity="0.43"/>
<circle id="Ellipse 138" cx="77.6387" cy="92.5513" r="2.5" transform="rotate(-90 77.6387 92.5513)" fill="white" fill-opacity="0.43"/>
<circle id="Ellipse 65" cx="92.6387" cy="208.885" r="2.5" transform="rotate(-90 92.6387 208.885)" fill="white" fill-opacity="0.43"/>
<circle id="Ellipse 139" cx="92.6387" cy="92.5513" r="2.5" transform="rotate(-90 92.6387 92.5513)" fill="white" fill-opacity="0.43"/>
<circle id="Ellipse 73" cx="107.639" cy="208.885" r="2.5" transform="rotate(-90 107.639 208.885)" fill="white" fill-opacity="0.43"/>
<circle id="Ellipse 140" cx="107.639" cy="92.5513" r="2.5" transform="rotate(-90 107.639 92.5513)" fill="white" fill-opacity="0.43"/>
<circle id="Ellipse 81" cx="122.639" cy="208.885" r="2.5" transform="rotate(-90 122.639 208.885)" fill="white" fill-opacity="0.43"/>
<circle id="Ellipse 141" cx="122.639" cy="92.5513" r="2.5" transform="rotate(-90 122.639 92.5513)" fill="white" fill-opacity="0.43"/>
<circle id="Ellipse 89" cx="137.639" cy="208.885" r="2.5" transform="rotate(-90 137.639 208.885)" fill="white" fill-opacity="0.43"/>
<circle id="Ellipse 142" cx="137.639" cy="92.5513" r="2.5" transform="rotate(-90 137.639 92.5513)" fill="white" fill-opacity="0.43"/>
<circle id="Ellipse 16" cx="2.63867" cy="178.885" r="2.5" transform="rotate(-90 2.63867 178.885)" fill="white" fill-opacity="0.43"/>
<circle id="Ellipse 143" cx="2.63867" cy="62.5513" r="2.5" transform="rotate(-90 2.63867 62.5513)" fill="white" fill-opacity="0.43"/>
<circle id="Ellipse 26" cx="17.6387" cy="178.885" r="2.5" transform="rotate(-90 17.6387 178.885)" fill="white" fill-opacity="0.43"/>
<circle id="Ellipse 144" cx="17.6387" cy="62.5513" r="2.5" transform="rotate(-90 17.6387 62.5513)" fill="white" fill-opacity="0.43"/>
<circle id="Ellipse 34" cx="32.6387" cy="178.885" r="2.5" transform="rotate(-90 32.6387 178.885)" fill="white" fill-opacity="0.43"/>
<circle id="Ellipse 145" cx="32.6387" cy="62.5513" r="2.5" transform="rotate(-90 32.6387 62.5513)" fill="white" fill-opacity="0.43"/>
<circle id="Ellipse 42" cx="47.6387" cy="178.885" r="2.5" transform="rotate(-90 47.6387 178.885)" fill="white" fill-opacity="0.43"/>
<circle id="Ellipse 146" cx="47.6387" cy="62.5513" r="2.5" transform="rotate(-90 47.6387 62.5513)" fill="white" fill-opacity="0.43"/>
<circle id="Ellipse 50" cx="62.6387" cy="178.885" r="2.5" transform="rotate(-90 62.6387 178.885)" fill="white" fill-opacity="0.43"/>
<circle id="Ellipse 147" cx="62.6387" cy="62.5513" r="2.5" transform="rotate(-90 62.6387 62.5513)" fill="white" fill-opacity="0.43"/>
<circle id="Ellipse 58" cx="77.6387" cy="178.885" r="2.5" transform="rotate(-90 77.6387 178.885)" fill="white" fill-opacity="0.43"/>
<circle id="Ellipse 148" cx="77.6387" cy="62.5513" r="2.5" transform="rotate(-90 77.6387 62.5513)" fill="white" fill-opacity="0.43"/>
<circle id="Ellipse 66" cx="92.6387" cy="178.885" r="2.5" transform="rotate(-90 92.6387 178.885)" fill="white" fill-opacity="0.43"/>
<circle id="Ellipse 149" cx="92.6387" cy="62.5513" r="2.5" transform="rotate(-90 92.6387 62.5513)" fill="white" fill-opacity="0.43"/>
<circle id="Ellipse 74" cx="107.639" cy="178.885" r="2.5" transform="rotate(-90 107.639 178.885)" fill="white" fill-opacity="0.43"/>
<circle id="Ellipse 150" cx="107.639" cy="62.5513" r="2.5" transform="rotate(-90 107.639 62.5513)" fill="white" fill-opacity="0.43"/>
<circle id="Ellipse 82" cx="122.639" cy="178.885" r="2.5" transform="rotate(-90 122.639 178.885)" fill="white" fill-opacity="0.43"/>
<circle id="Ellipse 151" cx="122.639" cy="62.5513" r="2.5" transform="rotate(-90 122.639 62.5513)" fill="white" fill-opacity="0.43"/>
<circle id="Ellipse 90" cx="137.639" cy="178.885" r="2.5" transform="rotate(-90 137.639 178.885)" fill="white" fill-opacity="0.43"/>
<circle id="Ellipse 152" cx="137.639" cy="62.5513" r="2.5" transform="rotate(-90 137.639 62.5513)" fill="white" fill-opacity="0.43"/>
<circle id="Ellipse 18" cx="2.63867" cy="148.885" r="2.5" transform="rotate(-90 2.63867 148.885)" fill="white" fill-opacity="0.43"/>
<circle id="Ellipse 153" cx="2.63867" cy="32.5513" r="2.5" transform="rotate(-90 2.63867 32.5513)" fill="white" fill-opacity="0.43"/>
<circle id="Ellipse 27" cx="17.6387" cy="148.885" r="2.5" transform="rotate(-90 17.6387 148.885)" fill="white" fill-opacity="0.43"/>
<circle id="Ellipse 154" cx="17.6387" cy="32.5513" r="2.5" transform="rotate(-90 17.6387 32.5513)" fill="white" fill-opacity="0.43"/>
<circle id="Ellipse 35" cx="32.6387" cy="148.885" r="2.5" transform="rotate(-90 32.6387 148.885)" fill="white" fill-opacity="0.43"/>
<circle id="Ellipse 155" cx="32.6387" cy="32.5513" r="2.5" transform="rotate(-90 32.6387 32.5513)" fill="white" fill-opacity="0.43"/>
<circle id="Ellipse 43" cx="47.6387" cy="148.885" r="2.5" transform="rotate(-90 47.6387 148.885)" fill="white" fill-opacity="0.43"/>
<circle id="Ellipse 156" cx="47.6387" cy="32.5513" r="2.5" transform="rotate(-90 47.6387 32.5513)" fill="white" fill-opacity="0.43"/>
<circle id="Ellipse 51" cx="62.6387" cy="148.885" r="2.5" transform="rotate(-90 62.6387 148.885)" fill="white" fill-opacity="0.43"/>
<circle id="Ellipse 157" cx="62.6387" cy="32.5513" r="2.5" transform="rotate(-90 62.6387 32.5513)" fill="white" fill-opacity="0.43"/>
<circle id="Ellipse 59" cx="77.6387" cy="148.885" r="2.5" transform="rotate(-90 77.6387 148.885)" fill="white" fill-opacity="0.43"/>
<circle id="Ellipse 158" cx="77.6387" cy="32.5513" r="2.5" transform="rotate(-90 77.6387 32.5513)" fill="white" fill-opacity="0.43"/>
<circle id="Ellipse 67" cx="92.6387" cy="148.885" r="2.5" transform="rotate(-90 92.6387 148.885)" fill="white" fill-opacity="0.43"/>
<circle id="Ellipse 159" cx="92.6387" cy="32.5513" r="2.5" transform="rotate(-90 92.6387 32.5513)" fill="white" fill-opacity="0.43"/>
<circle id="Ellipse 75" cx="107.639" cy="148.885" r="2.5" transform="rotate(-90 107.639 148.885)" fill="white" fill-opacity="0.43"/>
<circle id="Ellipse 160" cx="107.639" cy="32.5513" r="2.5" transform="rotate(-90 107.639 32.5513)" fill="white" fill-opacity="0.43"/>
<circle id="Ellipse 83" cx="122.639" cy="148.885" r="2.5" transform="rotate(-90 122.639 148.885)" fill="white" fill-opacity="0.43"/>
<circle id="Ellipse 161" cx="122.639" cy="32.5513" r="2.5" transform="rotate(-90 122.639 32.5513)" fill="white" fill-opacity="0.43"/>
<circle id="Ellipse 91" cx="137.639" cy="148.885" r="2.5" transform="rotate(-90 137.639 148.885)" fill="white" fill-opacity="0.43"/>
<circle id="Ellipse 162" cx="137.639" cy="32.5513" r="2.5" transform="rotate(-90 137.639 32.5513)" fill="white" fill-opacity="0.43"/>
<circle id="Ellipse 20" cx="2.63867" cy="118.885" r="2.5" transform="rotate(-90 2.63867 118.885)" fill="white" fill-opacity="0.43"/>
<circle id="Ellipse 163" cx="2.63867" cy="2.55127" r="2.5" transform="rotate(-90 2.63867 2.55127)" fill="white" fill-opacity="0.43"/>
<circle id="Ellipse 28" cx="17.6387" cy="118.885" r="2.5" transform="rotate(-90 17.6387 118.885)" fill="white" fill-opacity="0.43"/>
<circle id="Ellipse 164" cx="17.6387" cy="2.55127" r="2.5" transform="rotate(-90 17.6387 2.55127)" fill="white" fill-opacity="0.43"/>
<circle id="Ellipse 36" cx="32.6387" cy="118.885" r="2.5" transform="rotate(-90 32.6387 118.885)" fill="white" fill-opacity="0.43"/>
<circle id="Ellipse 165" cx="32.6387" cy="2.55127" r="2.5" transform="rotate(-90 32.6387 2.55127)" fill="white" fill-opacity="0.43"/>
<circle id="Ellipse 44" cx="47.6387" cy="118.885" r="2.5" transform="rotate(-90 47.6387 118.885)" fill="white" fill-opacity="0.43"/>
<circle id="Ellipse 166" cx="47.6387" cy="2.55127" r="2.5" transform="rotate(-90 47.6387 2.55127)" fill="white" fill-opacity="0.43"/>
<circle id="Ellipse 52" cx="62.6387" cy="118.885" r="2.5" transform="rotate(-90 62.6387 118.885)" fill="white" fill-opacity="0.43"/>
<circle id="Ellipse 167" cx="62.6387" cy="2.55127" r="2.5" transform="rotate(-90 62.6387 2.55127)" fill="white" fill-opacity="0.43"/>
<circle id="Ellipse 60" cx="77.6387" cy="118.885" r="2.5" transform="rotate(-90 77.6387 118.885)" fill="white" fill-opacity="0.43"/>
<circle id="Ellipse 168" cx="77.6387" cy="2.55127" r="2.5" transform="rotate(-90 77.6387 2.55127)" fill="white" fill-opacity="0.43"/>
<circle id="Ellipse 68" cx="92.6387" cy="118.885" r="2.5" transform="rotate(-90 92.6387 118.885)" fill="white" fill-opacity="0.43"/>
<circle id="Ellipse 169" cx="92.6387" cy="2.55127" r="2.5" transform="rotate(-90 92.6387 2.55127)" fill="white" fill-opacity="0.43"/>
<circle id="Ellipse 76" cx="107.639" cy="118.885" r="2.5" transform="rotate(-90 107.639 118.885)" fill="white" fill-opacity="0.43"/>
<circle id="Ellipse 170" cx="107.639" cy="2.55127" r="2.5" transform="rotate(-90 107.639 2.55127)" fill="white" fill-opacity="0.43"/>
<circle id="Ellipse 84" cx="122.639" cy="118.885" r="2.5" transform="rotate(-90 122.639 118.885)" fill="white" fill-opacity="0.43"/>
<circle id="Ellipse 171" cx="122.639" cy="2.55127" r="2.5" transform="rotate(-90 122.639 2.55127)" fill="white" fill-opacity="0.43"/>
<circle id="Ellipse 92" cx="137.639" cy="118.885" r="2.5" transform="rotate(-90 137.639 118.885)" fill="white" fill-opacity="0.43"/>
<circle id="Ellipse 172" cx="137.639" cy="2.55127" r="2.5" transform="rotate(-90 137.639 2.55127)" fill="white" fill-opacity="0.43"/>
</g>
</svg>
