<svg width="38" height="43" viewBox="0 0 38 43" fill="none" xmlns="http://www.w3.org/2000/svg">
<g id="Group 512">
<ellipse id="Ellipse 20" cx="2.80568" cy="39.5709" rx="2.58873" ry="2.20607" transform="rotate(-90 2.80568 39.5709)" fill="white"/>
<ellipse id="Ellipse 24" cx="13.7776" cy="39.5709" rx="2.58873" ry="2.20607" transform="rotate(-90 13.7776 39.5709)" fill="white"/>
<ellipse id="Ellipse 28" cx="24.7486" cy="39.5709" rx="2.58873" ry="2.20607" transform="rotate(-90 24.7486 39.5709)" fill="white"/>
<ellipse id="Ellipse 32" cx="35.7205" cy="39.5709" rx="2.58873" ry="2.20607" transform="rotate(-90 35.7205 39.5709)" fill="white"/>
<ellipse id="Ellipse 21" cx="2.80568" cy="27.3932" rx="2.58873" ry="2.20607" transform="rotate(-90 2.80568 27.3932)" fill="white"/>
<ellipse id="Ellipse 25" cx="13.7776" cy="27.3932" rx="2.58873" ry="2.20607" transform="rotate(-90 13.7776 27.3932)" fill="white"/>
<ellipse id="Ellipse 29" cx="24.7486" cy="27.3932" rx="2.58873" ry="2.20607" transform="rotate(-90 24.7486 27.3932)" fill="white"/>
<ellipse id="Ellipse 33" cx="35.7205" cy="27.3932" rx="2.58873" ry="2.20607" transform="rotate(-90 35.7205 27.3932)" fill="white"/>
<ellipse id="Ellipse 22" cx="2.80568" cy="15.2155" rx="2.58873" ry="2.20607" transform="rotate(-90 2.80568 15.2155)" fill="white"/>
<ellipse id="Ellipse 26" cx="13.7776" cy="15.2155" rx="2.58873" ry="2.20607" transform="rotate(-90 13.7776 15.2155)" fill="white"/>
<ellipse id="Ellipse 30" cx="24.7486" cy="15.2155" rx="2.58873" ry="2.20607" transform="rotate(-90 24.7486 15.2155)" fill="white"/>
<ellipse id="Ellipse 34" cx="35.7205" cy="15.2155" rx="2.58873" ry="2.20607" transform="rotate(-90 35.7205 15.2155)" fill="white"/>
<ellipse id="Ellipse 23" cx="2.80568" cy="3.03773" rx="2.58873" ry="2.20607" transform="rotate(-90 2.80568 3.03773)" fill="white"/>
<ellipse id="Ellipse 27" cx="13.7776" cy="3.03773" rx="2.58873" ry="2.20607" transform="rotate(-90 13.7776 3.03773)" fill="white"/>
<ellipse id="Ellipse 31" cx="24.7486" cy="3.03773" rx="2.58873" ry="2.20607" transform="rotate(-90 24.7486 3.03773)" fill="white"/>
<ellipse id="Ellipse 35" cx="35.7205" cy="3.03773" rx="2.58873" ry="2.20607" transform="rotate(-90 35.7205 3.03773)" fill="white"/>
</g>
</svg>
